# xmcd CD database file
#
# Track frame offsets:
#	150
#	18144
#	53274
#	79650
#	119219
#	142534
#	173383
#
# Disc length: 2684 seconds
#
# Revision: 0
# Processed by: cddbd v1.4PL0 Copyright (c) Steve Scherf et al.
# Submitted via: CDex 1.50Beta5
#
DISCID=420a7a07
DTITLE=Harry Sokal, Wolfgang Puschnig, Mike Richmond and Wolfgang Reisinger - Red-White-Red and Spangled
DYEAR=1983
DGENRE=Jazz
TTITLE0=Kaleidoskop
TTITLE1=Nanan n'Z Gang
TTITLE2=Rien ne va plus
TTITLE3=Prayer for Peace
TTITLE4=Hit Hat
TTITLE5=Ziemlich valosn
TTITLE6=Ziemlich valosn (alternate take)
EXTD=YEAR: 1983
EXTT0=
EXTT1=
EXTT2=
EXTT3=
EXTT4=
EXTT5=
EXTT6=
PLAYORDER=
